<svg viewBox="0 0 1800 700" xmlns="http://www.w3.org/2000/svg">
          <polygon points="100,220 160,140 320,140 335,160 365,160 380,140 540,140 600,220 600,500 540,540 380,540 365,520 335,520 320,540 160,540 100,500" fill="none" stroke="#FFD400" stroke-width="8" stroke-linejoin="miter"/>
          <rect x="240" y="560" width="220" height="14" fill="#FFD400"/><rect x="260" y="586" width="180" height="14" fill="#FFD400"/><rect x="280" y="612" width="140" height="14" fill="#FFD400"/>
          <line x1="350" y1="340" x2="350" y2="290" stroke="#FFD400" stroke-width="3"/><line x1="350" y1="340" x2="400" y2="290" stroke="#FFD400" stroke-width="3"/><line x1="350" y1="340" x2="400" y2="340" stroke="#FFD400" stroke-width="3"/><line x1="350" y1="340" x2="400" y2="390" stroke="#FFD400" stroke-width="3"/><line x1="350" y1="340" x2="350" y2="390" stroke="#FFD400" stroke-width="3"/><line x1="350" y1="340" x2="300" y2="390" stroke="#FFD400" stroke-width="3"/><line x1="350" y1="340" x2="300" y2="340" stroke="#FFD400" stroke-width="3"/><line x1="350" y1="340" x2="300" y2="290" stroke="#FFD400" stroke-width="3"/>
          <rect x="245" y="235" width="10" height="10" fill="#FFD400"/><rect x="295" y="235" width="10" height="10" fill="#FFD400"/><rect x="345" y="235" width="10" height="10" fill="#FFD400"/><rect x="395" y="235" width="10" height="10" fill="#FFD400"/><rect x="445" y="235" width="10" height="10" fill="#FFD400"/>
          <rect x="245" y="285" width="10" height="10" fill="#FFD400"/><rect x="293" y="283" width="14" height="14" fill="#FFD400"/><rect x="343" y="283" width="14" height="14" fill="#FFD400"/><rect x="393" y="283" width="14" height="14" fill="#FFD400"/><rect x="445" y="285" width="10" height="10" fill="#FFD400"/>
          <rect x="245" y="335" width="10" height="10" fill="#FFD400"/><rect x="293" y="333" width="14" height="14" fill="#FFD400"/><rect x="335" y="325" width="30" height="30" fill="#FFD400"/><rect x="393" y="333" width="14" height="14" fill="#FFD400"/><rect x="445" y="335" width="10" height="10" fill="#FFD400"/>
          <rect x="245" y="385" width="10" height="10" fill="#FFD400"/><rect x="293" y="383" width="14" height="14" fill="#FFD400"/><rect x="343" y="383" width="14" height="14" fill="#FFD400"/><rect x="393" y="383" width="14" height="14" fill="#FFD400"/><rect x="445" y="385" width="10" height="10" fill="#FFD400"/>
          <rect x="245" y="435" width="10" height="10" fill="#FFD400"/><rect x="295" y="435" width="10" height="10" fill="#FFD400"/><rect x="345" y="435" width="10" height="10" fill="#FFD400"/><rect x="395" y="435" width="10" height="10" fill="#FFD400"/><rect x="445" y="435" width="10" height="10" fill="#FFD400"/>
          <circle cx="100" cy="220" r="12" fill="#FFD400"/><circle cx="160" cy="140" r="12" fill="#FFD400"/><circle cx="160" cy="540" r="12" fill="#FFD400"/><circle cx="100" cy="500" r="12" fill="#FFD400"/>
          <circle cx="600" cy="220" r="12" fill="#FFD400"/><circle cx="540" cy="140" r="12" fill="#FFD400"/><circle cx="540" cy="540" r="12" fill="#FFD400"/><circle cx="600" cy="500" r="12" fill="#FFD400"/>
          <text x="820" y="430" font-family="-apple-system, BlinkMacSystemFont, Inter, Segoe UI, Roboto, system-ui, sans-serif" font-weight="800" font-size="180" fill="#0A0A0A" letter-spacing="-8">brain</text>
          <circle cx="1290" cy="365" r="18" fill="#FFD400"/>
          <text x="1340" y="430" font-family="-apple-system, BlinkMacSystemFont, Inter, Segoe UI, Roboto, system-ui, sans-serif" font-weight="800" font-size="180" fill="#0A0A0A" letter-spacing="-8">store</text>
        </svg>